<?xml version="1.0" encoding="UTF-8" standalone="no"?>
<!-- Created with Inkscape (http://www.inkscape.org/) -->
<svg xmlns:dc="http://purl.org/dc/elements/1.1/" xmlns:cc="http://web.resource.org/cc/" xmlns:rdf="http://www.w3.org/1999/02/22-rdf-syntax-ns#" xmlns:svg="http://www.w3.org/2000/svg" xmlns="http://www.w3.org/2000/svg" xmlns:sodipodi="http://sodipodi.sourceforge.net/DTD/sodipodi-0.dtd" xmlns:inkscape="http://www.inkscape.org/namespaces/inkscape" width="440.6731" height="336.03357" id="svg2196" sodipodi:version="0.32" inkscape:version="0.45.1" sodipodi:docbase="C:\Documents and Settings\edemaine\My Documents" sodipodi:docname="discrete_ham_sandwich_cut.svg" inkscape:output_extension="org.inkscape.output.svg.inkscape" version="1.0">
  <defs id="defs2198"/>
  <sodipodi:namedview id="base" pagecolor="#ffffff" bordercolor="#666666" borderopacity="1.0" gridtolerance="10000" guidetolerance="10" objecttolerance="10" inkscape:pageopacity="0.0" inkscape:pageshadow="2" inkscape:zoom="0.98994949" inkscape:cx="232.68212" inkscape:cy="173.48052" inkscape:document-units="px" inkscape:current-layer="layer1" inkscape:window-width="744" inkscape:window-height="573" inkscape:window-x="1046" inkscape:window-y="29"/>
  <metadata id="metadata2201">
    <rdf:RDF>
      <cc:Work rdf:about="">
        <dc:format>image/svg+xml</dc:format>
        <dc:type rdf:resource="http://purl.org/dc/dcmitype/StillImage"/>
      </cc:Work>
    </rdf:RDF>
  </metadata>
  <g inkscape:label="Layer 1" inkscape:groupmode="layer" id="layer1" transform="translate(-167.05357,-309.27504)">
    <path style="fill:none;fill-rule:evenodd;stroke:#000000;stroke-width:8.75;stroke-linecap:round;stroke-linejoin:miter;stroke-miterlimit:4;stroke-dasharray:none;stroke-opacity:1" d="M 171.42857,640.93361 L 594.28571,340.93361" id="path2204"/>
    <path sodipodi:type="arc" style="fill:#ff0000;stroke:#000000;stroke-width:1.25;stroke-linecap:round;stroke-miterlimit:4;stroke-dasharray:none" id="path3179" sodipodi:cx="226.77925" sodipodi:cy="417.48129" sodipodi:rx="12.626906" sodipodi:ry="12.626906" d="M 239.40616 417.48129 A 12.626906 12.626906 0 1 1  214.15234,417.48129 A 12.626906 12.626906 0 1 1  239.40616 417.48129 z"/>
    <path d="M 239.40616 417.48129 A 12.626906 12.626906 0 1 1  214.15234,417.48129 A 12.626906 12.626906 0 1 1  239.40616 417.48129 z" sodipodi:ry="12.626906" sodipodi:rx="12.626906" sodipodi:cy="417.48129" sodipodi:cx="226.77925" id="path3181" style="fill:#ff0000;stroke:#000000;stroke-width:1.25;stroke-linecap:round;stroke-miterlimit:4;stroke-dasharray:none" sodipodi:type="arc" transform="translate(126.26907,4.0406101)"/>
    <path transform="translate(271.73104,156.57364)" sodipodi:type="arc" style="fill:#ff0000;stroke:#000000;stroke-width:1.25;stroke-linecap:round;stroke-miterlimit:4;stroke-dasharray:none" id="path3183" sodipodi:cx="226.77925" sodipodi:cy="417.48129" sodipodi:rx="12.626906" sodipodi:ry="12.626906" d="M 239.40616 417.48129 A 12.626906 12.626906 0 1 1  214.15234,417.48129 A 12.626906 12.626906 0 1 1  239.40616 417.48129 z"/>
    <path d="M 239.40616 417.48129 A 12.626906 12.626906 0 1 1  214.15234,417.48129 A 12.626906 12.626906 0 1 1  239.40616 417.48129 z" sodipodi:ry="12.626906" sodipodi:rx="12.626906" sodipodi:cy="417.48129" sodipodi:cx="226.77925" id="path3185" style="fill:#ff0000;stroke:#000000;stroke-width:1.25;stroke-linecap:round;stroke-miterlimit:4;stroke-dasharray:none" sodipodi:type="arc" transform="translate(328.29958,50.507623)"/>
    <path transform="translate(182.83761,118.18784)" sodipodi:type="arc" style="fill:#ff0000;stroke:#000000;stroke-width:1.25;stroke-linecap:round;stroke-miterlimit:4;stroke-dasharray:none" id="path3187" sodipodi:cx="226.77925" sodipodi:cy="417.48129" sodipodi:rx="12.626906" sodipodi:ry="12.626906" d="M 239.40616 417.48129 A 12.626906 12.626906 0 1 1  214.15234,417.48129 A 12.626906 12.626906 0 1 1  239.40616 417.48129 z"/>
    <path d="M 239.40616 417.48129 A 12.626906 12.626906 0 1 1  214.15234,417.48129 A 12.626906 12.626906 0 1 1  239.40616 417.48129 z" sodipodi:ry="12.626906" sodipodi:rx="12.626906" sodipodi:cy="417.48129" sodipodi:cx="226.77925" id="path3189" style="fill:#ff0000;stroke:#000000;stroke-width:1.25;stroke-linecap:round;stroke-miterlimit:4;stroke-dasharray:none" sodipodi:type="arc" transform="translate(351.53309,204.05081)"/>
    <path transform="translate(-13.131979,142.4315)" sodipodi:type="arc" style="fill:#ff0000;stroke:#000000;stroke-width:1.25;stroke-linecap:round;stroke-miterlimit:4;stroke-dasharray:none" id="path3191" sodipodi:cx="226.77925" sodipodi:cy="417.48129" sodipodi:rx="12.626906" sodipodi:ry="12.626906" d="M 239.40616 417.48129 A 12.626906 12.626906 0 1 1  214.15234,417.48129 A 12.626906 12.626906 0 1 1  239.40616 417.48129 z"/>
    <path d="M 239.40616 417.48129 A 12.626906 12.626906 0 1 1  214.15234,417.48129 A 12.626906 12.626906 0 1 1  239.40616 417.48129 z" sodipodi:ry="12.626906" sodipodi:rx="12.626906" sodipodi:cy="417.48129" sodipodi:cx="226.77925" id="path3193" style="fill:#ff0000;stroke:#000000;stroke-width:1.25;stroke-linecap:round;stroke-miterlimit:4;stroke-dasharray:none" sodipodi:type="arc" transform="translate(225.26402,-94.954348)"/>
    <path transform="translate(42.426409,85.862958)" sodipodi:type="arc" style="fill:#0000ff;stroke:#000000;stroke-width:1.25;stroke-linecap:round;stroke-miterlimit:4;stroke-dasharray:none" id="path3197" sodipodi:cx="226.77925" sodipodi:cy="417.48129" sodipodi:rx="12.626906" sodipodi:ry="12.626906" d="M 239.40616 417.48129 A 12.626906 12.626906 0 1 1  214.15234,417.48129 A 12.626906 12.626906 0 1 1  239.40616 417.48129 z"/>
    <path d="M 239.40616 417.48129 A 12.626906 12.626906 0 1 1  214.15234,417.48129 A 12.626906 12.626906 0 1 1  239.40616 417.48129 z" sodipodi:ry="12.626906" sodipodi:rx="12.626906" sodipodi:cy="417.48129" sodipodi:cx="226.77925" id="path3199" style="fill:#0000ff;stroke:#000000;stroke-width:1.25;stroke-linecap:round;stroke-miterlimit:4;stroke-dasharray:none" sodipodi:type="arc" transform="translate(273.75134,-12.121839)" inkscape:transform-center-x="209.10158" inkscape:transform-center-y="106.06602"/>
    <path inkscape:transform-center-y="106.06602" inkscape:transform-center-x="209.10158" transform="translate(247.48737,93.944178)" sodipodi:type="arc" style="fill:#0000ff;stroke:#000000;stroke-width:1.25;stroke-linecap:round;stroke-miterlimit:4;stroke-dasharray:none" id="path3201" sodipodi:cx="226.77925" sodipodi:cy="417.48129" sodipodi:rx="12.626906" sodipodi:ry="12.626906" d="M 239.40616 417.48129 A 12.626906 12.626906 0 1 1  214.15234,417.48129 A 12.626906 12.626906 0 1 1  239.40616 417.48129 z"/>
    <path d="M 239.40616 417.48129 A 12.626906 12.626906 0 1 1  214.15234,417.48129 A 12.626906 12.626906 0 1 1  239.40616 417.48129 z" sodipodi:ry="12.626906" sodipodi:rx="12.626906" sodipodi:cy="417.48129" sodipodi:cx="226.77925" id="path3203" style="fill:#0000ff;stroke:#000000;stroke-width:1.25;stroke-linecap:round;stroke-miterlimit:4;stroke-dasharray:none" sodipodi:type="arc" transform="translate(367.69552,127.27921)" inkscape:transform-center-x="209.10158" inkscape:transform-center-y="106.06602"/>
    <path inkscape:transform-center-y="106.06602" inkscape:transform-center-x="209.10158" transform="translate(85.86296,203.04065)" sodipodi:type="arc" style="fill:#0000ff;stroke:#000000;stroke-width:1.25;stroke-linecap:round;stroke-miterlimit:4;stroke-dasharray:none" id="path3205" sodipodi:cx="226.77925" sodipodi:cy="417.48129" sodipodi:rx="12.626906" sodipodi:ry="12.626906" d="M 239.40616 417.48129 A 12.626906 12.626906 0 1 1  214.15234,417.48129 A 12.626906 12.626906 0 1 1  239.40616 417.48129 z"/>
    <path d="M 239.40616 417.48129 A 12.626906 12.626906 0 1 1  214.15234,417.48129 A 12.626906 12.626906 0 1 1  239.40616 417.48129 z" sodipodi:ry="12.626906" sodipodi:rx="12.626906" sodipodi:cy="417.48129" sodipodi:cx="226.77925" id="path3207" style="fill:#0000ff;stroke:#000000;stroke-width:1.25;stroke-linecap:round;stroke-miterlimit:4;stroke-dasharray:none" sodipodi:type="arc" transform="translate(66.670062,-64.649775)" inkscape:transform-center-x="209.10158" inkscape:transform-center-y="106.06602"/>
    <path inkscape:transform-center-y="106.06602" inkscape:transform-center-x="209.10158" transform="translate(211.12188,-21.213216)" sodipodi:type="arc" style="fill:#0000ff;stroke:#000000;stroke-width:1.25;stroke-linecap:round;stroke-miterlimit:4;stroke-dasharray:none" id="path3209" sodipodi:cx="226.77925" sodipodi:cy="417.48129" sodipodi:rx="12.626906" sodipodi:ry="12.626906" d="M 239.40616 417.48129 A 12.626906 12.626906 0 1 1  214.15234,417.48129 A 12.626906 12.626906 0 1 1  239.40616 417.48129 z"/>
  </g>
</svg>